#!OML:ASF I:\Actors\actors\Patient Classification 2\Patient 1\Session 1\actor1.ASF
:FULLY-SPECIFIED
:DEGREES
129
root -0.607936 18.7088 5.43934 1.24346 -3.41902 -1.37474
lowerback 0.888723 0.63087 -1.11965
upperback -0.654214 0.828543 0.280147
thorax -1.18778 0.424546 0.898261
lowerneck -11.8747 -2.48314 -1.91138
upperneck 35.8291 -4.52197 3.46366
head 14.4183 -1.76487 1.04922
rclavicle -9.11148e-015 2.98177e-015
rhumerus -35.6558 26.6891 -92.0939
rradius 83.0597
rwrist 10.6341
rhand -14.4889 -46.306
rfingers 7.12502
rthumb 11.6577 -75.9616
lclavicle -9.11148e-015 2.98177e-015
lhumerus -17.2736 -35.271 85.1498
lradius 76.7182
lwrist 6.05586
lhand -0.488918 -22.0769
lfingers 7.12502
lthumb 25.122 6.29027
rfemur 0 0 0
rtibia 0
rfoot 0 0
rtoes 0
lfemur -3.81496 -5.85909 -13.3939
ltibia 21.0313
lfoot -23.1155 16.4787
ltoes -54.8669
130
root -0.607516 18.7071 5.43915 1.20963 -3.47571 -1.4021
lowerback 0.941767 0.657789 -1.089
upperback -0.642666 0.864639 0.307263
thorax -1.20654 0.442504 0.907568
lowerneck -11.7981 -2.51179 -1.92755
upperneck 35.8281 -4.57241 3.49367
head 14.4038 -1.78583 1.05744
rclavicle -9.1076e-015 -4.17448e-015
rhumerus -34.9916 26.9724 -91.8447
rradius 82.8626
rwrist 10.7709
rhand -14.5541 -46.5401
rfingers 7.12502
rthumb 11.5948 -76.1993
lclavicle -9.1076e-015 -4.17448e-015
lhumerus -16.7574 -35.8473 84.8983
lradius 76.8324
lwrist 6.22983
lhand -0.253783 -22.016
lfingers 7.12502
lthumb 25.3473 6.31946
rfemur 0 0 0
rtibia 0
rfoot 0 0
rtoes 0
lfemur -3.77242 -5.74512 -13.3631
ltibia 21.0346
lfoot -23.0924 16.4289
ltoes -54.8751
131
root -0.605024 18.7065 5.43891 1.19393 -3.41531 -1.36406
lowerback 0.951118 0.655036 -1.0789
upperback -0.623014 0.861053 0.304842
thorax -1.19137 0.440436 0.899531
lowerneck -11.6812 -2.53528 -1.89331
upperneck 35.756 -4.62068 3.5118
head 14.3452 -1.80186 1.05209
rclavicle -1.4342e-015 7.95139e-015
rhumerus -34.3886 27.2795 -91.6377
rradius 82.7098
rwrist 10.8989
rhand -14.5128 -46.7915
rfingers 7.12502
rthumb 11.6346 -76.4485
lclavicle -1.4342e-015 7.95139e-015
lhumerus -16.1561 -36.4108 84.603
lradius 76.9005
lwrist 6.27225
lhand 0.203394 -21.971
lfingers 7.12502
lthumb 25.7852 6.30162
rfemur 0 0 0
rtibia 0
rfoot 0 0
rtoes 0
lfemur -3.78679 -5.88712 -13.4263
ltibia 21.0723
lfoot -23.1625 16.4867
ltoes -54.8214
132
root -0.601673 18.7056 5.44044 1.16799 -3.3269 -1.29909
lowerback 0.885956 0.646734 -1.08979
upperback -0.553058 0.850645 0.292867
thorax -1.08291 0.434319 0.894891
lowerneck -11.612 -2.5812 -1.81939
upperneck 35.6634 -4.6995 3.49577
head 14.287 -1.82984 1.02027
rclavicle 6.86428e-015 4.96962e-015
rhumerus -33.8251 27.5601 -91.4521
rradius 82.65
rwrist 10.8559
rhand -14.4041 -46.9442
rfingers 7.12502
rthumb 11.7395 -76.5952
lclavicle 6.86428e-015 4.96962e-015
lhumerus -15.2584 -37.0174 84.1408
lradius 76.8237
lwrist 6.18359
lhand 1.00622 -21.886
lfingers 7.12502
lthumb 26.5538 6.27273
rfemur 0 0 0
rtibia 0
rfoot 0 0
rtoes 0
lfemur -3.84956 -5.97312 -13.5132
ltibia 21.2159
lfoot -23.2282 16.4773
ltoes -54.7981
133
root -0.591793 18.7032 5.43961 1.08687 -3.15083 -1.44598
lowerback 0.941779 0.603095 -0.785098
upperback -0.469293 0.796584 0.322977
thorax -1.02334 0.404598 0.755933
lowerneck -11.5953 -2.62001 -1.84813
upperneck 35.6395 -4.76722 3.54698
head 14.2776 -1.8564 1.03579
rclavicle 1.97371e-014 1.53064e-014
rhumerus -33.2523 27.8518 -91.2512
rradius 82.577
rwrist 10.7745
rhand -14.3833 -47.1171
rfingers 7.12502
rthumb 11.7595 -76.767
lclavicle 1.97371e-014 1.53064e-014
lhumerus -14.1767 -37.603 83.571
lradius 76.6873
lwrist 5.99158
lhand 2.25388 -21.5248
lfingers 7.12502
lthumb 27.7474 6.44756
rfemur 0 0 0
rtibia 0
rfoot 0 0
rtoes 0
lfemur -3.81209 -5.89679 -13.3623
ltibia 21.2648
lfoot -23.1318 16.2886
ltoes -54.8338
134
root -0.569133 18.6991 5.43151 0.926683 -2.85168 -1.9945
lowerback 1.26587 0.511641 0.148136
upperback -0.395453 0.689377 0.429477
thorax -1.11762 0.345014 0.34126
lowerneck -11.6062 -2.64679 -1.90251
upperneck 35.6566 -4.80372 3.57606
head 14.292 -1.87492 1.05168
rclavicle -3.57502e-015 -2.5842e-015
rhumerus -32.6844 28.1898 -91.0306
rradius 82.4844
rwrist 10.7409
rhand -14.4769 -47.2792
rfingers 7.12502
rthumb 11.6692 -76.9342
lclavicle -3.57502e-015 -2.5842e-015
lhumerus -13.0658 -38.078 83.0081
lradius 76.6928
lwrist 5.78189
lhand 3.84672 -20.7022
lfingers 7.12502
lthumb 29.2694 7.01495
rfemur 0 0 0
rtibia 0
rfoot 0 0
rtoes 0
lfemur -3.69078 -5.78166 -12.7957
ltibia 21.3169
lfoot -22.9561 15.9604
ltoes -54.9185
135
root -0.594561 18.7045 5.43653 1.1499 -2.83394 -1.44136
lowerback 0.865216 0.530672 -0.85624
upperback -0.396717 0.700508 0.406014
thorax -0.906189 0.356479 0.883792
lowerneck -11.5272 -2.68436 -1.83376
upperneck 35.6276 -4.84093 3.47623
head 14.2566 -1.89619 0.993936
rclavicle 6.03808e-015 -1.45113e-014
rhumerus -32.2958 28.4355 -90.8979
rradius 82.475
rwrist 10.7556
rhand -14.5495 -47.4423
rfingers 7.12502
rthumb 11.5993 -77.1013
lclavicle 6.03808e-015 -1.45113e-014
lhumerus -12.0085 -38.4315 82.5029
lradius 76.749
lwrist 5.40509
lhand 5.49731 -19.9601
lfingers 7.12502
lthumb 30.8442 7.47097
rfemur 0 0 0
rtibia 0
rfoot 0 0
rtoes 0
lfemur -4.03646 -5.7223 -13.2997
ltibia 21.3777
lfoot -22.8858 15.954
ltoes -54.9564
136
root -0.595159 18.7076 5.4282 1.24721 -2.91404 -1.26276
lowerback 0.857929 0.578448 -1.08443
upperback -0.433602 0.761311 0.397586
thorax -0.944115 0.388615 1.00186
lowerneck -11.3765 -2.72026 -1.78309
upperneck 35.5769 -4.8813 3.4077
head 14.1966 -1.91854 0.95265
rclavicle -8.47941e-015 2.98177e-015
rhumerus -32.0687 28.6212 -90.8595
rradius 82.5119
rwrist 10.8425
rhand -14.5217 -47.6282
rfingers 7.12502
rthumb 11.626 -77.2856
lclavicle -8.47941e-015 2.98177e-015
lhumerus -11.0585 -38.6483 82.0639
lradius 76.7371
lwrist 4.7682
lhand 7.01509 -19.7501
lfingers 7.12502
lthumb 32.2901 7.39729
rfemur 0 0 0
rtibia 0
rfoot 0 0
rtoes 0
lfemur -4.21838 -5.78355 -13.5153
ltibia 21.4269
lfoot -22.9177 16.1138
ltoes -54.9259
137
root -0.570625 18.7101 5.40499 1.29857 -3.33838 -1.2708
lowerback 1.20467 0.730257 -0.716555
upperback -0.502935 0.965671 0.349526
thorax -1.20775 0.489583 0.737614
lowerneck -11.3318 -2.74828 -1.85219
upperneck 35.5628 -4.92639 3.46933
head 14.186 -1.93972 0.983563
rclavicle -9.37394e-015 7.95139e-016
rhumerus -31.8132 28.8301 -90.8393
rradius 82.5429
rwrist 10.8618
rhand -14.4936 -47.9365
rfingers 7.12502
rthumb 11.6532 -77.5924
lclavicle -9.37394e-015 7.95139e-016
lhumerus -10.0791 -38.7671 81.6093
lradius 76.5507
lwrist 3.99533
lhand 8.24648 -19.9592
lfingers 7.12502
lthumb 33.4613 6.94252
rfemur 0 0 0
rtibia 0
rfoot 0 0
rtoes 0
lfemur -4.26196 -6.05821 -13.6936
ltibia 21.3853
lfoot -23.1634 16.7212
ltoes -54.7408
138
root -0.569776 18.7095 5.40046 1.21399 -3.15548 -1.282
lowerback 1.38933 0.672244 -0.64746
upperback -0.460002 0.888502 0.351977
thorax -1.2649 0.450538 0.701158
lowerneck -11.3263 -2.74938 -1.87027
upperneck 35.5266 -4.94481 3.53477
head 14.1718 -1.94183 1.01034
rclavicle -3.81573e-015 1.78906e-015
rhumerus -31.5546 28.9914 -90.9001
rradius 82.5441
rwrist 10.8965
rhand -14.3371 -48.4102
rfingers 7.12502
rthumb 11.804 -78.0575
lclavicle -3.81573e-015 1.78906e-015
lhumerus -8.985 -38.9309 81.0599
lradius 76.0365
lwrist 3.17865
lhand 9.06428 -20.3731
lfingers 7.12502
lthumb 34.2383 6.35741
rfemur 0 0 0
rtibia 0
rfoot 0 0
rtoes 0
lfemur -4.26397 -6.00787 -13.6667
ltibia 21.4325
lfoot -23.0034 16.5829
ltoes -54.9377
139
root -0.571142 18.7095 5.39683 1.14942 -3.00325 -1.2978
lowerback 1.53946 0.611525 -0.619551
upperback -0.424994 0.807341 0.356556
thorax -1.31152 0.409817 0.690763
lowerneck -11.3369 -2.73577 -1.90049
upperneck 35.5372 -4.95737 3.64551
head 14.1846 -1.93641 1.05871
rclavicle 1.89622e-015 1.08338e-014
rhumerus -31.306 29.1682 -91.0317
rradius 82.4615
rwrist 11.0054
rhand -14.0692 -48.8876
rfingers 7.12502
rthumb 12.0624 -78.5199
lclavicle 1.89622e-015 1.08338e-014
lhumerus -7.74635 -39.3317 80.3453
lradius 75.1232
lwrist 2.33463
lhand 9.44001 -20.9511
lfingers 7.12502
lthumb 34.595 5.69859
rfemur 0 0 0
rtibia 0
rfoot 0 0
rtoes 0
lfemur -4.28643 -5.82552 -13.6133
ltibia 21.4919
lfoot -22.8345 16.349
ltoes -55.1541
140
root -0.573486 18.7111 5.39309 1.18506 -2.93282 -1.27654
lowerback 1.58028 0.578284 -0.67139
upperback -0.420266 0.762046 0.381369
thorax -1.32984 0.387754 0.746032
lowerneck -11.378 -2.74087 -2.02401
upperneck 35.654 -4.99317 3.79533
head 14.2587 -1.94653 1.13665
rclavicle 3.00507e-015 -5.66536e-015
rhumerus -31.0395 29.3999 -91.1416
rradius 82.3245
rwrist 11.0485
rhand -13.9684 -49.2857
rfingers 7.12502
rthumb 12.1596 -78.9123
lclavicle 3.00507e-015 -5.66536e-015
lhumerus -6.3257 -40.0086 79.5223
lradius 73.76
lwrist 1.3394
lhand 9.77968 -21.4773
lfingers 7.12502
lthumb 34.9173 5.09801
rfemur 0 0 0
rtibia 0
rfoot 0 0
rtoes 0
lfemur -4.36888 -5.81581 -13.6151
ltibia 21.5179
lfoot -22.8304 16.2564
ltoes -55.1184
141
root -0.574516 18.7129 5.38982 1.29184 -2.83103 -1.22492
lowerback 1.49824 0.529384 -0.752016
upperback -0.417591 0.69625 0.425668
thorax -1.28142 0.355498 0.839216
lowerneck -11.4014 -2.74451 -2.07205
upperneck 35.7525 -4.97406 3.74744
head 14.3085 -1.94948 1.12925
rclavicle 8.57725e-015 -1.55052e-014
rhumerus -30.7353 29.7226 -91.1617
rradius 82.1922
rwrist 11.0735
rhand -13.9557 -49.5348
rfingers 7.12502
rthumb 12.1719 -79.1607
lclavicle 8.57725e-015 -1.55052e-014
lhumerus -4.79316 -40.7986 78.6632
lradius 72.1339
lwrist 0.280206
lhand 10.5882 -21.5442
lfingers 7.12502
lthumb 35.6841 4.84932
rfemur 0 0 0
rtibia 0
rfoot 0 0
rtoes 0
lfemur -4.53757 -5.82244 -13.6435
ltibia 21.5439
lfoot -22.8333 16.1536
ltoes -55.0033
142
root -0.572681 18.7139 5.38658 1.32766 -2.58168 -1.21347
lowerback 1.47168 0.420242 -0.761207
upperback -0.372183 0.551521 0.494208
thorax -1.21784 0.283044 0.918768
lowerneck -11.4613 -2.73086 -2.05141
upperneck 35.8041 -4.89529 3.56491
head 14.3353 -1.93534 1.06288
rclavicle -5.3237e-015 -4.47266e-015
rhumerus -30.3677 30.2021 -91.0863
rradius 82.1185
rwrist 11.157
rhand -13.0499 -50.2097
rfingers 7.12502
rthumb 13.0451 -79.7818
lclavicle -5.3237e-015 -4.47266e-015
lhumerus -3.25194 -41.5346 77.7736
lradius 70.534
lwrist -0.529655
lhand 11.8937 -21.1815
lfingers 7.12502
lthumb 36.9201 4.90352
rfemur 0 0 0
rtibia 0
rfoot 0 0
rtoes 0
lfemur -4.66801 -5.78719 -13.6178
ltibia 21.5648
lfoot -22.675 15.932
ltoes -54.9784
143
root -0.56906 18.7143 5.38268 1.27501 -2.29057 -1.22874
lowerback 1.57266 0.308012 -0.707431
upperback -0.305423 0.403069 0.557875
thorax -1.20295 0.208356 0.957251
lowerneck -11.5461 -2.71304 -2.06799
upperneck 35.8373 -4.82328 3.4511
head 14.3634 -1.91975 1.02962
rclavicle 6.11884e-016 -4.67144e-015
rhumerus -29.9709 30.6922 -90.9894
rradius 82.1417
rwrist 11.2809
rhand -12.0676 -51.1319
rfingers 7.12502
rthumb 13.9919 -80.6411
lclavicle 6.11884e-016 -4.67144e-015
lhumerus -1.81384 -42.1714 76.9504
lradius 69.083
lwrist -1.05911
lhand 13.3079 -20.7623
lfingers 7.12502
lthumb 38.2566 4.9666
rfemur 0 0 0
rtibia 0
rfoot 0 0
rtoes 0
lfemur -4.71289 -5.84654 -13.5819
ltibia 21.5911
lfoot -22.5273 15.728
ltoes -54.9567
